<?xml version="1.0" encoding="UTF-8"?>
<svg width="159px" height="110px" viewBox="0 0 159 110" version="1.1" xmlns="http://www.w3.org/2000/svg">
    <title>YouTube Logo</title>
    <g stroke="none" stroke-width="1" fill="none" fill-rule="evenodd">
        <path d="M154,17.5 C152.2,10.8 146.9,5.5 140.2,3.7 C128,0 79,0 79,0 C79,0 30,0 17.8,3.7 C11.1,5.5 5.8,10.8 4,17.5 C0.3,29.7 0.3,55.3 0.3,55.3 C0.3,55.3 0.3,81 4,93.2 C5.8,99.9 11.1,105.2 17.8,107 C30,110.7 79,110.7 79,110.7 C79,110.7 128,110.7 140.2,107 C146.9,105.2 152.2,99.9 154,93.2 C157.7,81 157.7,55.3 157.7,55.3 C157.7,55.3 157.7,29.7 154,17.5 Z" fill="#FF0000"/>
        <polygon fill="#FFFFFF" points="63.9 79.2 103.2 55.3 63.9 31.4"/>
    </g>
</svg>
